<?xml version="1.0" standalone="no"?>
<!DOCTYPE svg PUBLIC "-//W3C//DTD SVG 20010904//EN"
 "http://www.w3.org/TR/2001/REC-SVG-20010904/DTD/svg10.dtd">
<svg version="1.0" xmlns="http://www.w3.org/2000/svg"
 width="269.000000pt" height="230.000000pt" viewBox="0 0 269.000000 230.000000"
 preserveAspectRatio="xMidYMid meet">
<metadata>
Created by potrace 1.10, written by Peter Selinger 2001-2011
</metadata>
<g transform="translate(0.000000,230.000000) scale(0.050000,-0.050000)"
fill="#000000" stroke="none">
<path d="M3140 4385 c-1 -8 -42 -60 -92 -115 -51 -55 -128 -140 -172 -190
-190 -212 -414 -458 -519 -570 -62 -66 -158 -169 -214 -230 -89 -96 -107 -107
-140 -87 -32 21 -49 12 -120 -60 -106 -108 -104 -120 22 -254 58 -61 163 -176
234 -255 70 -79 138 -144 150 -144 54 1 187 192 156 223 -32 32 -10 76 83 169
45 46 103 106 130 134 l47 52 -47 96 c-92 185 -33 474 113 554 21 12 45 31 53
42 30 42 281 23 351 -26 77 -55 84 -52 225 106 59 66 115 123 124 127 34 14
14 84 -34 115 -27 18 -50 42 -50 53 0 11 23 41 50 67 65 60 63 88 -12 159
l-61 59 -48 -55 c-58 -68 -94 -70 -129 -5 -24 45 -99 71 -100 35z"/>
<path d="M2920 3666 c-209 -38 -287 -373 -124 -532 219 -212 557 23 467 324
-32 108 -204 240 -283 219 -5 -1 -32 -6 -60 -11z"/>
<path d="M3340 3223 c0 -20 -27 -74 -60 -120 -73 -101 -74 -89 7 -190 250
-310 221 -826 -62 -1105 -49 -48 -99 -88 -111 -88 -11 0 -36 -14 -55 -30 -19
-18 -91 -36 -166 -43 l-133 -13 0 63 0 64 -493 -6 -493 -5 4 -284 4 -284 -93
-6 -93 -6 -4 -95 -4 -95 111 0 c61 0 568 -3 1126 -8 l1015 -8 0 108 0 107
-545 6 -545 5 -6 55 c-6 54 -4 55 93 55 339 0 727 333 855 732 54 167 53 622
0 750 -131 311 -352 588 -352 441z"/>
<path d="M1588 2028 c-6 -23 -8 -73 -4 -110 l6 -68 675 -5 c532 -4 675 0 676
20 1 14 6 59 11 100 12 100 56 94 -698 100 -653 5 -656 5 -666 -37z"/>
<path d="M382 803 c-226 -94 -176 -319 88 -394 176 -50 216 -102 133 -176 -67
-61 -149 -43 -204 46 -71 115 -159 117 -159 4 0 -214 368 -282 523 -96 100
120 29 265 -164 333 -177 62 -199 75 -199 121 0 96 146 87 226 -14 73 -93 180
-26 131 82 -52 114 -224 157 -375 94z"/>
<path d="M912 791 c-43 -66 -46 -621 -4 -676 76 -100 159 -10 149 162 -8 132
61 174 129 79 76 -105 131 -194 143 -234 10 -30 30 -42 70 -42 71 0 90 44 59
137 -22 67 -35 87 -93 152 -34 38 -33 40 35 108 157 157 63 313 -200 333 -93
6 -189 16 -213 21 -29 6 -53 -7 -75 -40z m364 -115 c35 -35 30 -130 -8 -144
-85 -33 -208 -13 -208 33 0 25 -6 65 -13 90 -13 52 181 69 229 21z"/>
<path d="M2592 803 c-255 -90 -321 -453 -119 -654 160 -161 507 -52 507 158 0
116 -122 100 -153 -20 -23 -94 -180 -117 -244 -37 -46 60 -74 257 -47 331 54
140 221 143 306 5 23 -36 49 -66 58 -66 147 0 83 204 -88 282 -99 45 -98 45
-220 1z"/>
<path d="M1599 789 c-12 -15 -18 -155 -14 -362 l5 -337 65 -6 65 -7 0 197 c1
311 29 319 89 24 42 -209 46 -218 112 -218 65 0 99 46 99 132 0 30 9 83 19
117 11 33 25 86 31 116 25 123 52 52 40 -104 -16 -213 24 -307 111 -260 36 19
39 45 39 348 0 359 -10 391 -116 391 -98 -1 -143 -77 -173 -291 -27 -199 -53
-178 -112 91 -40 185 -174 272 -260 169z"/>
<path d="M3236 793 c-58 -44 -74 -116 -51 -220 20 -87 19 -97 -22 -125 -254
-178 37 -474 330 -335 60 28 67 27 105 -11 53 -53 95 -53 122 -2 16 31 13 47
-16 76 -56 56 -67 103 -42 180 34 103 -27 150 -97 75 -43 -48 -48 -48 -85 -16
-52 44 -51 49 19 124 149 160 -86 388 -263 254z m178 -95 c38 -38 -8 -117 -67
-118 -27 0 -49 72 -33 112 12 34 69 37 100 6z m-44 -370 c83 -85 85 -93 20
-128 -100 -54 -206 56 -151 158 31 58 51 53 131 -30z"/>
<path d="M3940 807 c-153 -24 -140 5 -140 -326 0 -404 -2 -401 197 -401 298 0
387 75 399 335 14 310 -139 442 -456 392z m205 -151 c167 -63 107 -438 -74
-452 -102 -9 -110 9 -111 239 0 275 5 281 185 213z"/>
<path d="M4680 798 c-347 -139 -227 -737 149 -738 157 0 361 261 239 308 -61
23 -84 11 -119 -63 -79 -168 -243 -144 -290 42 -47 184 21 353 140 353 56 0
141 -50 141 -82 0 -99 147 -122 156 -25 15 152 -237 276 -416 205z"/>
</g>
</svg>
