<?xml version="1.0" encoding="UTF-8" standalone="no"?>
<!-- Created with Inkscape (http://www.inkscape.org/) -->

<svg
   width="82.972412mm"
   height="84.696938mm"
   viewBox="0 0 82.972412 84.696938"
   version="1.1"
   id="svg1"
   xml:space="preserve"
   inkscape:version="1.3.2 (091e20e, 2023-11-25, custom)"
   sodipodi:docname="drawing.svg"
   inkscape:dataloss="true"
   inkscape:export-filename="drawing.png"
   inkscape:export-xdpi="96"
   inkscape:export-ydpi="96"
   xmlns:inkscape="http://www.inkscape.org/namespaces/inkscape"
   xmlns:sodipodi="http://sodipodi.sourceforge.net/DTD/sodipodi-0.dtd"
   xmlns="http://www.w3.org/2000/svg"
   xmlns:svg="http://www.w3.org/2000/svg"><sodipodi:namedview
     id="namedview1"
     pagecolor="#ffffff"
     bordercolor="#000000"
     borderopacity="0.25"
     inkscape:showpageshadow="2"
     inkscape:pageopacity="0.0"
     inkscape:pagecheckerboard="0"
     inkscape:deskcolor="#d1d1d1"
     inkscape:document-units="mm"
     inkscape:zoom="0.73139029"
     inkscape:cx="156.55116"
     inkscape:cy="160.65294"
     inkscape:window-width="1920"
     inkscape:window-height="1017"
     inkscape:window-x="-8"
     inkscape:window-y="-8"
     inkscape:window-maximized="1"
     inkscape:current-layer="layer1" /><defs
     id="defs1" /><g
     inkscape:label="Layer 1"
     inkscape:groupmode="layer"
     id="layer1"
     transform="translate(-59.266666,-77.522916)"><path
       style="fill:#000000"
       d="m 91.490501,161.30597 c -0.17476,-0.48327 -0.31774,-1.53102 -0.31774,-2.32833 0,-0.79731 -0.13556,-1.58522 -0.30125,-1.75091 -0.30806,-0.30805 -0.37931,-0.78988 -0.64605,-4.36864 -0.0841,-1.12778 -0.24502,-2.05052 -0.35769,-2.05052 -0.11267,0 -0.28277,-0.92273 -0.37799,-2.05052 -0.0952,-1.12778 -0.29128,-2.09021 -0.4357,-2.13871 -0.15311,-0.0514 -0.26257,-1.34088 -0.26257,-3.09324 0,-1.84331 -0.10911,-3.07248 -0.28224,-3.17948 -0.18185,-0.11239 -0.26164,-1.42126 -0.22433,-3.67992 0.0318,-1.92801 -0.0309,-3.64925 -0.13954,-3.82496 -0.1086,-0.17572 -0.11976,-0.62905 -0.0248,-1.00741 0.2241,-0.89286 0.2602,-6.39549 0.0434,-6.61231 -0.2845,-0.28449 -0.18683,-7.09534 0.10595,-7.38812 0.1865,-0.1865 0.0953,-0.49708 -0.28991,-0.98673 -0.66549,-0.84603 -0.50944,-1.49276 0.36018,-1.49276 0.74297,0 2.01194,1.1995 1.46284,1.38274 -0.28503,0.0951 -0.33311,2.22654 -0.25878,11.47173 0.0502,6.2452 0.18527,11.47396 0.30011,11.61948 0.11484,0.14553 0.29431,1.9017 0.39882,3.90261 0.10451,2.00091 0.29689,3.63802 0.4275,3.63802 0.13062,0 0.23748,0.57547 0.23748,1.27882 0,0.70335 0.0761,1.35491 0.1691,1.44791 0.093,0.093 0.19468,0.61887 0.22595,1.16858 0.1257,2.20973 0.48813,4.57136 0.70154,4.57136 0.31948,0 0.2832,-3.63779 -0.0383,-3.83646 -0.37286,-0.23045 -0.32946,-1.54908 0.0639,-1.94248 0.25864,-0.25863 0.25959,-0.37112 0.005,-0.5288 -0.248,-0.15327 -0.36349,-4.51295 -0.49209,-18.57596 -0.0932,-10.18814 -0.27198,-18.41497 -0.40133,-18.46387 -0.12832,-0.0485 -0.2333,-0.53995 -0.2333,-1.09208 0,-1.29598 -0.34432,-1.55051 -2.23072,-1.64909 -1.22596,-0.0641 -1.61215,-0.19194 -1.84294,-0.61022 -0.16058,-0.29104 -0.40791,-0.61219 -0.54962,-0.71367 -0.15133,-0.10837 -0.0149,-0.44293 0.33073,-0.8108 0.32361,-0.34447 0.58838,-0.7467 0.58838,-0.89386 0,-0.33409 1.04087,-1.28663 1.63365,-1.49502 0.69415,-0.24402 1.32,-1.84315 1.22723,-3.13572 -0.0698,-0.9728 -0.17807,-1.16653 -0.69263,-1.23947 -0.33543,-0.0476 -0.75215,0.0311 -0.92604,0.17476 -0.17389,0.14367 -0.76397,0.3449 -1.31128,0.44718 -0.54731,0.10228 -1.06035,0.29153 -1.14009,0.42055 -0.0797,0.12903 -0.4118,0.23459 -0.73791,0.23459 -0.32611,0 -0.71448,0.12155 -0.86304,0.27011 -0.14856,0.14857 -1.06918,0.34474 -2.04582,0.43594 -0.97663,0.0912 -1.84199,0.27308 -1.92302,0.40419 -0.087,0.14075 -0.27313,0.13882 -0.4545,-0.005 -0.16894,-0.13369 -1.59867,-0.30583 -3.17717,-0.38253 -1.5785,-0.0767 -3.0013,-0.27074 -3.16177,-0.43122 -0.16048,-0.16047 -0.73718,-0.29177 -1.28158,-0.29177 -0.54439,0 -1.05698,-0.1087 -1.13909,-0.24156 -0.0821,-0.13286 -0.61194,-0.31972 -1.17739,-0.41526 -0.57232,-0.0967 -1.29592,-0.45878 -1.63223,-0.81677 -0.33228,-0.35369 -0.76572,-0.64308 -0.9632,-0.64308 -0.19748,0 -0.42759,-0.178592 -0.51135,-0.396872 -0.0838,-0.21828 -0.29052,-0.39688 -0.45945,-0.39688 -0.48915,0 -5.64802,-5.35458 -5.86299,-6.08541 -0.10701,-0.3638 -0.31906,-0.7413 -0.47123,-0.83887 -0.15217,-0.0976 -0.32881,-0.93102 -0.39254,-1.85209 -0.0637,-0.92107 -0.22663,-1.8129 -0.36198,-1.98184 -0.14867,-0.18556 -0.15006,-0.36653 -0.003,-0.4571 0.13342,-0.0825 0.32221,-0.85374 0.41953,-1.71396 0.1859,-1.64312 0.83364,-3.247 1.67049,-4.13635 0.27386,-0.29104 0.57851,-0.74023 0.67701,-0.99819 0.0985,-0.25796 0.39013,-0.54346 0.6481,-0.63444 0.25796,-0.091 0.8397,-0.43911 1.29275,-0.77363 0.45306,-0.33452 1.15949,-0.69248 1.56987,-0.79548 0.41037,-0.103 1.05172,-0.34674 1.42522,-0.54165 0.3735,-0.19492 1.11855,-0.35512 1.65567,-0.35602 0.53711,-9e-4 1.05015,-0.12069 1.14009,-0.26621 0.20188,-0.32665 3.22105,-0.3536 3.42072,-0.0305 0.0796,0.12873 0.67912,0.3142 1.33236,0.41216 0.65324,0.098 1.25704,0.29029 1.34178,0.4274 0.0847,0.13712 0.38028,0.2493 0.65676,0.2493 0.72558,0 2.36234,0.86794 2.37,1.25677 0.004,0.1819 0.16434,0.33073 0.35726,0.33073 0.19291,0 0.63039,0.29765 0.97216,0.66146 0.34178,0.3638 0.75605,0.66146 0.9206,0.66146 0.35472,0 2.78357,2.48039 2.78357,2.84264 0,0.13769 0.23812,0.46584 0.52916,0.72923 0.29105,0.26339 0.52917,0.62058 0.52917,0.79375 0,0.17317 0.22925,0.52233 0.50945,0.77591 0.2802,0.25357 0.82474,1.10546 1.21009,1.89309 0.38535,0.78762 0.81094,1.43204 0.94575,1.43204 0.13482,0 0.24564,0.14883 0.24627,0.33073 6.3e-4,0.1819 0.47346,1.26398 1.05073,2.40463 0.57727,1.14064 1.12604,2.48141 1.21948,2.97948 0.0934,0.49808 0.27545,0.97083 0.40448,1.05057 0.12902,0.0797 0.23458,0.43562 0.23458,0.79083 0,0.88862 0.14823,0.87293 2.28979,-0.24242 0.45901,-0.23906 1.04309,-0.43465 1.29794,-0.43465 0.25485,0 0.83179,-0.2763 1.28209,-0.61401 0.4503,-0.3377 1.35451,-0.88462 2.00935,-1.21539 1.86137,-0.94018 2.339349,-1.22567 2.896989,-1.73033 0.47836,-0.43291 0.55317,-0.43624 0.94718,-0.0422 0.53464,0.53464 0.41958,1.20621 -0.2723,1.58922 -0.29104,0.16112 -0.58869,0.3662 -0.66145,0.45572 -0.0728,0.0895 -0.39037,0.24327 -0.705789,0.34164 -1.25652,0.39187 -1.94005,1.20203 -1.94005,2.29946 0,0.88233 -0.10733,1.08649 -0.68706,1.3069 -0.37788,0.14367 -0.74896,0.49791 -0.82461,0.787202 -0.0756,0.28929 -0.26022,0.52598 -0.41016,0.52598 -0.14994,0 -0.78117,0.41672 -1.40274,0.92605 -0.62156,0.50932 -1.2589,0.92604 -1.41631,0.92604 -0.15741,0 -0.2862,0.15784 -0.2862,0.35075 0,0.19292 -0.29766,0.63039 -0.66146,0.97216 -0.56908,0.53463 -0.66146,0.85297 -0.66146,2.27947 0,0.91193 0.10822,1.72493 0.24048,1.80668 0.13226,0.0817 2.2205,0.22671 4.64052,0.32215 2.42003,0.0954 4.461969,0.27372 4.537639,0.39616 0.0757,0.12245 0.71885,0.22263 1.42928,0.22263 0.71043,0 1.35961,0.1099 1.44263,0.24422 0.083,0.13433 0.50676,0.32238 0.94165,0.4179 0.68747,0.151 0.79072,0.29031 0.79072,1.06694 0,0.61396 0.33093,1.36569 1.05833,2.40409 0.58209,0.83095 1.05834,1.67129 1.05834,1.86743 0,0.19613 0.11329,0.56334 0.25176,0.81603 0.13847,0.25269 0.4497,0.90591 0.69161,1.45162 0.78743,1.77627 1.16384,1.05757 1.16968,-2.23335 0.002,-1.1192 0.12267,-2.10849 0.2682,-2.19842 0.16295,-0.10071 0.26458,-2.32227 0.26458,-5.78354 0,-4.01834 0.0905,-5.71049 0.3175,-5.93751 0.24694,-0.24694 0.24694,-0.38805 0,-0.635 -0.39221,-0.3922 -0.42242,-3.290592 -0.0368,-3.528932 0.16771,-0.10365 0.25841,-1.01721 0.22531,-2.2694 -0.0305,-1.15275 0.0218,-2.17311 0.11616,-2.26747 0.0944,-0.0943 0.17156,-0.62796 0.17156,-1.18579 0,-0.55783 0.10622,-1.01424 0.23604,-1.01424 0.12983,0 0.32074,-1.18332 0.42426,-2.6296 0.14233,-1.9886 0.30006,-2.73083 0.64705,-3.04485 0.41967,-0.3798 0.50204,-0.36659 0.96481,0.15472 0.36361,0.4096 0.41291,0.60251 0.17523,0.68564 -0.21777,0.0762 -0.33072,0.6902 -0.33072,1.79782 0,0.92517 -0.10449,1.7467 -0.2322,1.82563 -0.12771,0.0789 -0.31929,2.35006 -0.42573,5.04697 -0.20413,5.17196 -0.11707,5.68867 0.9585,5.68867 0.27519,0 0.76663,-0.14779 1.09208,-0.32843 0.81755,-0.45378 5.48651,-5.02013 5.48651,-5.36594 0,-0.15448 0.51125,-0.78262 1.13612,-1.39588 0.88679,-0.87033 1.20614,-1.04499 1.45521,-0.79592 0.38994,0.38994 0.42302,1.72201 0.0459,1.84772 -0.42459,0.14153 -0.48016,8.210642 -0.0575,8.352662 0.1819,0.0611 0.33073,0.256 0.33073,0.43305 0,0.17705 0.1426,0.46451 0.31689,0.6388 0.24613,0.24613 0.48245,0.15827 1.05833,-0.39346 0.4078,-0.39069 0.74145,-0.82924 0.74145,-0.97455 0,-0.14531 0.45259,-0.80765 1.00577,-1.47185 0.55317,-0.664212 1.2136,-1.654142 1.46762,-2.199842 0.25402,-0.54571 0.57533,-0.99219 0.71402,-0.99219 0.13869,0 0.25217,-0.15784 0.25217,-0.35076 0,-0.55537 1.24755,-1.58686 1.70633,-1.41081 0.4783,0.18354 0.56615,1.7645 0.1227,2.20796 -0.20713,0.20712 -0.20713,0.33739 0,0.4654 0.1582,0.0978 0.28764,0.56901 0.28764,1.04719 0,1.034832 0.78557,1.879422 1.50239,1.615262 0.58478,-0.2155 5.39627,-5.419522 5.65755,-6.119102 0.10226,-0.27382 0.43811,-0.72466 0.74633,-1.00188 0.30821,-0.27721 0.56039,-0.62075 0.56039,-0.76341 0,-0.14266 0.29766,-0.53524 0.66146,-0.8724 0.3638,-0.33716 0.66146,-0.71701 0.66146,-0.84411 0,-0.36723 1.21097,-1.40542 1.40869,-1.20771 0.3642,0.36421 0.15993,1.07445 -0.48265,1.67812 -0.3638,0.34177 -0.66146,0.73722 -0.66146,0.87876 0,0.14155 -0.44648,0.80072 -0.99219,1.46483 -0.5457,0.6641 -1.11125,1.40476 -1.25677,1.6459 -2.08575,3.45624 -5.34839,6.682042 -6.75838,6.682042 -0.93563,0 -1.84057,-0.75306 -1.84057,-1.53167 0,-0.757052 -0.58883,-1.991472 -0.95119,-1.994052 -0.351,-0.003 -1.16548,0.86024 -1.16548,1.23454 0,0.147882 -0.22742,0.474692 -0.50537,0.726242 -0.27796,0.25154 -0.57497,0.73463 -0.66002,1.07353 -0.0851,0.33889 -0.75887,1.15942 -1.49737,1.82339 -1.02502,0.92159 -1.44791,1.15136 -1.78737,0.97116 -0.24456,-0.12982 -0.65481,-0.30122 -0.91165,-0.38087 -0.58752,-0.1822 -0.98822,-1.21262 -0.98822,-2.54124 0,-0.56403 -0.11906,-1.09908 -0.26458,-1.18902 -0.14553,-0.0899 -0.26459,-0.566192 -0.26459,-1.058332 0,-0.49215 0.11906,-0.9684 0.26459,-1.05834 0.35568,-0.21982 0.33905,-2.70087 -0.0196,-2.92252 -0.33977,-0.20999 -1.56791,0.87837 -1.56791,1.38945 0,0.19748 -0.20836,0.4314 -0.46303,0.51982 -0.25466,0.0884 -1.1201,0.79786 -1.92321,1.57653 -1.74553,1.692442 -3.18939,2.479432 -4.54887,2.479432 h -1.00239 v 1.53458 c 0,0.85816 -0.14287,1.67745 -0.32411,1.85869 -0.25575,0.25575 -0.25575,0.43356 0,0.84308 0.39145,0.62681 0.44102,4.92058 0.0595,5.15636 -0.14751,0.0912 -0.26458,1.32046 -0.26458,2.77812 0,1.45767 -0.11708,2.68696 -0.26458,2.77813 -0.14553,0.0899 -0.26459,1.10197 -0.26459,2.24896 0,1.14699 0.11906,2.15902 0.26459,2.24896 0.14552,0.0899 0.26458,0.9829 0.26458,1.98437 0,1.00147 -0.11906,1.89444 -0.26458,1.98438 -0.14553,0.0899 -0.26459,0.68524 -0.26459,1.32291 0,0.63767 0.11906,1.23298 0.26459,1.32292 0.14552,0.0899 0.26458,1.04946 0.26458,2.13228 0,1.89793 -0.0227,1.96876 -0.6306,1.96876 -0.76386,0 -0.94826,-0.54715 -0.95329,-2.82866 -0.002,-0.90091 -0.12267,-1.71161 -0.26819,-1.80155 -0.14553,-0.0899 -0.26459,-0.85102 -0.26459,-1.69131 0,-0.84028 -0.0844,-1.61223 -0.18766,-1.71544 -0.10321,-0.10322 -0.15451,-0.64673 -0.114,-1.20781 0.0405,-0.56108 -0.0536,-1.09881 -0.20922,-1.19497 -0.15558,-0.0961 -0.28287,-0.63702 -0.28287,-1.20193 0,-0.5649 -0.10556,-1.09234 -0.23459,-1.17208 -0.12902,-0.0798 -0.3147,-0.57201 -0.41261,-1.09392 -0.18189,-0.96959 -0.96528,-2.56228 -1.62861,-3.31108 -0.20351,-0.22974 -0.37002,-0.53489 -0.37002,-0.6781 0,-0.14322 -0.35719,-0.6026 -0.79375,-1.02086 -0.43656,-0.41825 -0.79375,-0.86575 -0.79375,-0.99444 0,-0.12869 -0.19958,-0.43384 -0.44351,-0.6781 -0.34245,-0.34292 -1.05089,-0.46428 -3.10886,-0.53258 -1.465939,-0.0487 -2.778449,-0.19748 -2.916689,-0.33073 -0.13825,-0.13325 -1.40328,-0.24227 -2.81119,-0.24227 h -2.55984 l 0.11914,6.54843 c 0.0655,3.60165 0.19085,6.72704 0.2785,6.94532 0.26893,0.66971 0.29709,2.37033 0.0419,2.52807 -0.33367,0.20622 -0.31135,7.9806 0.0235,8.18755 0.14552,0.0899 0.26459,0.44713 0.26459,0.79375 0,0.34663 -0.11907,0.70381 -0.26459,0.79375 -0.33592,0.20761 -0.34447,1.26949 -0.0129,1.60107 0.13881,0.1388 0.27111,2.55939 0.29499,5.39685 0.0272,3.23655 0.15224,5.31961 0.33699,5.61545 0.21904,0.35074 0.21131,0.55269 -0.0304,0.7944 -0.4102,0.41021 -0.42989,2.33494 -0.0239,2.33494 0.31933,0 0.15834,8.67325 -0.18784,10.12031 -0.25932,1.08395 -1.23242,0.99467 -1.64673,-0.15108 z m -0.78796,-53.62548 c -0.0403,-0.3638 -0.0711,-0.93347 -0.0684,-1.26592 0.008,-0.99935 -0.67937,-0.96846 -1.69376,0.0761 -1.44825,1.4913 -1.26324,2.05352 0.63499,1.92964 1.10636,-0.0722 1.19472,-0.1302 1.12712,-0.7398 z m 3.42745,-6.79172 c 0.41082,-0.39359 0.74694,-0.85735 0.74694,-1.030592 0,-0.17324 0.17859,-0.4632 0.39688,-0.64436 0.21828,-0.18115 0.39687,-0.43612 0.39687,-0.5666 0,-0.25229 -1.27528,-0.0239 -1.71979,0.30795 -0.14552,0.10865 -0.64331,0.27848 -1.1062,0.3774 -0.46289,0.0989 -0.95807,0.32103 -1.10041,0.49357 -0.21317,0.258432 -0.43005,1.954172 -0.33257,2.600312 0.0432,0.2863 1.92636,-0.77897 2.71828,-1.53768 z m -12.61452,0.7063 c 0.0899,-0.14552 0.63275,-0.26458 1.20624,-0.26458 0.5735,0 1.04272,-0.10554 1.04272,-0.23454 0,-0.129 0.53301,-0.31447 1.18446,-0.41216 0.65145,-0.0977 1.24545,-0.27631 1.31999,-0.39693 0.0745,-0.12061 0.52381,-0.292812 0.99836,-0.382672 0.47455,-0.0899 1.20465,-0.43701 1.62244,-0.77145 0.71776,-0.57457 0.7492,-0.68387 0.57048,-1.98329 -0.10402,-0.75637 -0.29703,-1.37521 -0.42889,-1.37521 -0.13187,0 -0.23976,-0.22039 -0.23976,-0.48976 0,-0.26937 -0.29765,-1.04957 -0.66145,-1.73379 -0.36381,-0.68422 -0.66146,-1.39557 -0.66146,-1.58079 0,-0.18521 -0.29148,-0.61058 -0.64774,-0.94526 -0.35625,-0.33469 -0.7229,-0.95075 -0.81477,-1.36904 -0.0919,-0.41829 -0.26718,-0.76053 -0.38958,-0.76053 -0.12239,0 -0.30538,-0.37717 -0.40663,-0.83817 -0.13025,-0.59303 -1.09189,-1.74116 -3.28803,-3.92565 -2.95154,-2.93587 -4.76305,-4.22041 -5.98002,-4.24042 -0.28147,-0.005 -0.74289,-0.18322 -1.02536,-0.39688 -0.68175,-0.51564 -3.31816,-0.51564 -3.99991,0 -0.61847,0.46779 -2.53354,0.52847 -2.96796,0.094 -0.23861,-0.23861 -0.43838,-0.19619 -0.856,0.18175 -0.29961,0.27114 -0.4882,0.64034 -0.41909,0.82044 0.1907,0.49697 -1.10341,1.21307 -2.3029,1.27431 -0.85339,0.0436 -1.22096,0.23603 -1.83888,0.96283 -0.71792,0.84442 -1.28477,1.87008 -1.37941,2.49588 -0.0533,0.35229 -0.38713,1.21401 -0.69054,1.78235 -0.31492,0.5899 -0.31624,2.19166 -0.002,2.7853 0.13363,0.25269 0.47775,0.99521 0.76471,1.65006 0.28696,0.65484 0.77294,1.41744 1.07996,1.69465 0.30701,0.27722 0.5582,0.63095 0.5582,0.78608 0,0.33818 2.92706,3.3401 3.25681,3.3401 0.12687,0 0.84701,0.52655 1.60031,1.17012 0.7533,0.64356 1.69502,1.25178 2.09272,1.3516 0.39769,0.0998 0.72308,0.279072 0.72308,0.398342 0,0.11928 0.65484,0.29868 1.45521,0.39868 0.80036,0.1 1.45521,0.28716 1.45521,0.41591 0,0.12876 0.82641,0.2341 1.83647,0.2341 1.01005,0 1.91005,0.11906 1.99999,0.26458 0.0899,0.14553 1.04243,0.26459 2.11666,0.26459 1.07423,0 2.02673,-0.11906 2.11667,-0.26459 z"
       id="path1" /></g></svg>
