<?xml version="1.0" standalone="no"?>
<!DOCTYPE svg PUBLIC "-//W3C//DTD SVG 20010904//EN"
 "http://www.w3.org/TR/2001/REC-SVG-20010904/DTD/svg10.dtd">
<svg version="1.0" xmlns="http://www.w3.org/2000/svg"
 width="260.000000pt" height="260.000000pt" viewBox="0 0 260.000000 260.000000"
 preserveAspectRatio="xMidYMid meet">
<metadata>
Created by potrace 1.10, written by Peter Selinger 2001-2011
</metadata>
<g transform="translate(0.000000,260.000000) scale(0.100000,-0.100000)"
fill="#000000" stroke="none">
<path d="M400 2510 c0 -8 -8 -10 -23 -6 -14 3 -39 -2 -62 -14 -22 -11 -45 -20
-52 -20 -8 0 -16 -6 -19 -14 -3 -8 -15 -17 -27 -20 -36 -9 -85 -82 -97 -145
-7 -31 -16 -64 -21 -73 -6 -12 -6 -18 1 -18 5 0 10 -18 10 -40 0 -59 27 -104
113 -192 42 -43 77 -76 77 -72 0 3 20 -10 45 -30 34 -29 61 -40 117 -52 40 -8
80 -17 88 -20 8 -4 40 -6 71 -5 33 2 60 -2 64 -9 5 -8 10 -8 20 0 8 6 24 10
37 9 13 -2 28 -1 33 2 6 4 34 12 63 19 28 6 54 16 57 21 3 4 12 6 20 2 8 -3
15 0 15 6 0 6 11 11 25 11 23 0 25 -4 25 -46 0 -40 -5 -51 -38 -83 -67 -64
-74 -75 -63 -105 9 -23 16 -26 60 -26 52 0 76 -16 65 -44 -3 -9 -1 -22 4 -29
13 -16 21 -727 8 -727 -5 0 -4 -6 2 -12 5 -8 12 -111 15 -243 3 -126 8 -238
12 -247 5 -13 2 -18 -9 -18 -12 0 -15 6 -10 25 3 14 3 33 -1 42 -10 22 -10 26
-31 183 -10 78 -18 230 -21 405 -2 154 -7 287 -10 295 -7 20 -6 111 1 132 15
45 16 51 5 64 -17 21 -59 18 -59 -4 0 -10 2 -21 6 -24 3 -3 7 -124 9 -269 5
-339 15 -579 25 -579 8 0 23 -97 36 -230 3 -36 11 -71 16 -77 6 -7 7 -29 4
-48 -4 -19 -3 -35 2 -35 5 0 12 -13 16 -30 4 -21 11 -30 25 -30 13 0 18 5 15
14 -3 8 -1 17 5 21 14 8 15 271 2 280 -10 6 -8 39 4 68 4 10 2 23 -4 31 -8 10
-9 16 -1 21 6 3 7 11 4 17 -3 5 -6 63 -5 128 1 80 -2 125 -11 139 -10 16 -9
25 2 46 10 19 11 28 2 37 -17 17 -16 244 1 252 9 5 9 7 -1 12 -10 5 -10 9 -1
21 9 10 9 17 2 21 -6 4 -12 81 -15 200 l-5 192 61 0 c115 -1 260 -17 264 -28
2 -7 21 -33 43 -59 21 -26 39 -53 39 -60 0 -7 4 -13 9 -13 10 0 41 -105 41
-138 0 -12 5 -22 10 -22 7 0 8 -13 4 -35 -4 -21 -2 -35 4 -35 6 0 13 -45 17
-105 7 -103 21 -145 43 -131 15 9 16 126 2 126 -5 0 -10 16 -10 35 0 19 5 35
10 35 13 0 13 107 0 115 -10 6 -7 116 4 133 5 8 15 246 16 385 0 48 0 49 29
42 38 -8 84 21 173 109 36 36 69 66 71 66 3 0 5 -46 5 -102 -1 -113 11 -158
41 -158 11 0 22 -6 24 -12 4 -10 6 -10 6 0 1 6 7 12 14 12 16 0 57 42 57 58 0
7 5 12 10 12 6 0 10 5 10 12 0 15 49 78 60 78 6 0 13 -17 16 -38 8 -49 51 -80
85 -62 34 19 99 81 99 96 0 7 9 18 20 24 11 6 20 15 20 20 0 6 32 51 70 100
72 92 78 104 59 115 -10 7 -49 -26 -49 -41 0 -3 -22 -34 -50 -69 -27 -35 -50
-67 -50 -72 0 -5 -31 -39 -68 -76 -66 -65 -69 -67 -85 -49 -9 10 -17 31 -17
45 0 15 -5 27 -12 27 -9 0 -9 3 0 12 7 7 12 25 12 40 0 46 -32 35 -70 -24 -19
-29 -46 -69 -62 -88 -15 -19 -28 -39 -28 -46 0 -6 -11 -21 -25 -34 l-26 -24
-6 22 c-3 12 -10 22 -15 22 -6 0 -8 7 -5 15 4 8 2 17 -3 20 -14 9 -12 92 1
101 7 4 9 24 5 55 -4 29 -2 50 4 54 12 8 13 35 1 54 -7 11 -16 5 -42 -25 -70
-83 -198 -204 -216 -204 -10 0 -24 5 -31 12 -15 15 -16 144 -2 153 5 3 10 32
11 63 0 31 4 89 8 127 6 51 5 74 -4 83 -21 22 -31 -6 -44 -118 -7 -58 -16
-106 -20 -108 -4 -1 -5 -30 -3 -63 3 -37 0 -65 -7 -72 -15 -15 -14 -94 2 -100
9 -3 9 -7 1 -18 -7 -9 -13 -96 -17 -234 -3 -121 -10 -231 -15 -245 -10 -24
-11 -24 -31 23 -12 27 -21 54 -21 61 0 7 -13 30 -30 52 -16 21 -30 51 -30 66
0 20 -7 29 -32 38 -18 7 -47 12 -64 11 -18 -1 -35 2 -39 8 -3 6 -34 11 -68 11
-34 0 -92 3 -129 7 l-68 6 0 51 c0 56 21 87 93 136 20 14 37 28 37 33 0 4 11
12 24 17 19 7 25 18 28 46 3 33 8 40 53 64 49 27 66 53 47 72 -7 7 -22 2 -45
-16 -18 -14 -38 -26 -43 -26 -5 0 -29 -14 -54 -30 -25 -16 -53 -30 -62 -30
-10 0 -18 -4 -18 -8 0 -5 -17 -14 -39 -20 -49 -15 -54 -15 -48 2 3 7 2 17 -2
22 -5 5 -16 34 -26 64 -9 30 -20 57 -24 60 -3 3 -17 29 -31 57 -14 29 -28 53
-32 53 -5 0 -8 6 -8 13 0 24 -139 197 -157 197 -5 0 -26 16 -47 35 -22 19 -58
40 -80 46 -23 6 -47 16 -53 21 -20 16 -143 23 -143 8z m147 -55 c12 -8 27 -13
35 -10 7 2 31 -9 53 -25 22 -16 54 -39 70 -51 43 -31 116 -120 146 -179 14
-27 32 -58 41 -67 8 -10 23 -40 33 -68 10 -27 22 -55 27 -62 5 -7 7 -17 3 -23
-3 -5 -1 -10 4 -10 6 0 11 -11 11 -25 0 -30 -28 -50 -101 -70 -30 -9 -64 -21
-76 -27 -12 -6 -29 -8 -37 -5 -9 4 -16 2 -16 -3 0 -11 -113 -14 -124 -3 -4 4
-26 6 -50 4 -24 -1 -52 2 -63 8 -10 6 -37 15 -60 21 -23 6 -64 28 -91 50 -28
21 -52 37 -54 35 -5 -5 -98 89 -98 98 0 4 -14 26 -30 51 -35 52 -47 118 -29
161 7 17 11 36 10 43 -1 6 2 12 6 12 5 0 14 13 21 29 14 33 64 71 70 53 5 -16
62 20 62 39 0 18 30 35 39 22 8 -10 71 -12 71 -2 0 21 98 24 127 4z m593 -550
c0 -8 -4 -15 -9 -15 -5 0 -19 -15 -32 -34 -13 -19 -30 -37 -39 -39 -8 -3 -23
-8 -32 -12 -16 -6 -17 -3 -12 26 7 36 28 57 78 76 42 16 46 15 46 -2z m-146
-210 c-4 -8 -1 -22 6 -30 19 -23 -3 -43 -40 -37 -43 6 -46 19 -14 53 30 31 57
39 48 14z"/>
</g>
</svg>
